<?xml version="1.0" encoding="UTF-8" standalone="no"?>
<!-- Generator: Adobe Illustrator 23.1.1, SVG Export Plug-In . SVG Version: 6.00 Build 0)  -->

<svg
   version="1.1"
   id="Layer_1"
   x="0px"
   y="0px"
   viewBox="0 0 580 320"
   xml:space="preserve"
   sodipodi:docname="ui-ux.svg"
   inkscape:version="1.4.2 (f4327f4, 2025-05-13)"
   width="580"
   height="320"
   xmlns:inkscape="http://www.inkscape.org/namespaces/inkscape"
   xmlns:sodipodi="http://sodipodi.sourceforge.net/DTD/sodipodi-0.dtd"
   xmlns="http://www.w3.org/2000/svg"
   xmlns:svg="http://www.w3.org/2000/svg"><defs
   id="defs64" /><sodipodi:namedview
   id="namedview64"
   pagecolor="#505050"
   bordercolor="#eeeeee"
   borderopacity="1"
   inkscape:showpageshadow="0"
   inkscape:pageopacity="0"
   inkscape:pagecheckerboard="0"
   inkscape:deskcolor="#505050"
   inkscape:zoom="1.006"
   inkscape:cx="189.36382"
   inkscape:cy="169.48311"
   inkscape:window-width="1366"
   inkscape:window-height="705"
   inkscape:window-x="1912"
   inkscape:window-y="-8"
   inkscape:window-maximized="1"
   inkscape:current-layer="Layer_1"
   showguides="true" />
<style
   type="text/css"
   id="style1">
	.st0{fill:#6A737F;}
	.st1{fill:#EEF2F4;}
	.st2{fill:#FFFFFF;}
	.st3{fill:#444E59;}
	.st4{fill:#BBBFC2;}
	.st5{fill:#28A8E0;}
	.st6{opacity:0.4;fill:#848484;}
	.st7{fill:none;stroke:#444E59;stroke-width:4;stroke-linecap:round;stroke-linejoin:round;stroke-miterlimit:10;}
	.st8{opacity:0.32;fill:#848484;}
	.st9{fill:#AFB1B2;}
	.st10{fill:#AEAEAF;}
	.st11{fill:#6567C3;}
	.st12{opacity:0.2;fill:#444E59;}
	.st13{opacity:0.2;fill:none;stroke:#444E59;stroke-width:4;stroke-linecap:round;stroke-linejoin:round;stroke-miterlimit:10;}
	.st14{opacity:0.2;}
	.st15{opacity:9.000000e-02;}
	.st16{fill:#F09F54;}
	.st17{fill:#ED8B3B;}
	.st18{fill:#FF6C37;}
	.st19{fill:#8D91DB;}
	.st20{fill:#BECCD5;stroke:#444E59;stroke-width:4;stroke-linecap:round;stroke-linejoin:round;stroke-miterlimit:10;}
	.st21{opacity:0.3;fill:none;stroke:#444E59;stroke-width:4;stroke-linecap:round;stroke-linejoin:round;stroke-miterlimit:10;}
	.st22{opacity:0.62;fill:#FFFFFF;}
	.st23{opacity:0.71;fill:#5D5D5D;}
	.st24{opacity:0.8;fill:#BBBFC2;}
	.st25{opacity:0.3;}
	.st26{fill:none;stroke:#444E59;stroke-width:2;stroke-linejoin:round;}
	.st27{fill:none;stroke:#444E59;stroke-width:2;stroke-linejoin:round;stroke-dasharray:2.858,1.9053;}
	.st28{fill:none;stroke:#444E59;stroke-width:2;stroke-linejoin:round;stroke-dasharray:3.0046,2.003;}
	.st29{fill:none;stroke:#444E59;stroke-linejoin:round;stroke-miterlimit:10;}
	.st30{fill:none;stroke:#444E59;stroke-linecap:round;stroke-linejoin:round;stroke-miterlimit:10;}
</style>








<g
   id="g1"
   transform="matrix(0.63995954,0,0,0.63995954,-31.771657,-142.11927)"><path
     id="XMLID_1313_"
     class="st3"
     d="M 909.72146,671.65618 H 95.778564 c -4.999035,0 -8.998263,-5.17242 -8.998263,-11.63794 v 0 c 0,-6.46552 3.999228,-11.63794 8.998263,-11.63794 H 909.82144 c 4.99903,0 8.99826,5.17242 8.99826,11.63794 v 0 c -0.1,6.46552 -4.09921,11.63794 -9.09824,11.63794 z"
     style="fill:#0c1633;fill-opacity:1;stroke:#ffffff;stroke-width:1.33255" /><g
     id="XMLID_24_">
	<rect
   id="XMLID_6_"
   x="407.39999"
   y="647.79999"
   class="st3"
   width="140.8"
   height="8.3999996" />
	<g
   id="XMLID_104_">
		<path
   id="XMLID_76_"
   class="st4"
   d="M 646,592.9 H 313.8 c -6.6,0 -12,-5.4 -12,-12 V 358.4 c 0,-6.6 5.4,-12 12,-12 H 646 c 6.6,0 12,5.4 12,12 v 222.4 c 0,6.7 -5.3,12.1 -12,12.1 z"
   style="fill:#0c1633;fill-opacity:1" />
		
			<rect
   id="XMLID_80_"
   x="389.79999"
   y="303.5"
   transform="rotate(90,480.60395,459.78335)"
   class="st5"
   width="181.7"
   height="312.60001"
   style="fill:#cccdd0;fill-opacity:1" /><path
   id="XMLID_18_"
   class="st6"
   d="m 646.8,592.9 h -52.1 v -94.8 c 0,-7.6 6.1,-13.7 13.7,-13.7 h 38.4 z"
   style="fill:#000000;fill-opacity:1" />
		
		<path
   id="XMLID_107_"
   class="st6"
   d="M 327.1,501.3 H 301.8 V 576 c 0,9.3 8,16.9 17.4,16.9 h 29.1 v -70 c -0.1,-11.7 -9.6,-21.6 -21.2,-21.6 z"
   style="fill:#000000;fill-opacity:1" />
		<path
   id="XMLID_5_"
   class="st7"
   d="M 647,592.9 H 314.2 c -6.6,0 -12,-5.4 -12,-12 V 358.4 c 0,-6.6 5.4,-12 12,-12 H 647 c 6.6,0 12,5.4 12,12 v 222.4 c 0,6.7 -5.4,12.1 -12,12.1 z"
   style="stroke:#ffffff" />
		
			
	</g>
	<path
   id="XMLID_179_"
   class="st8"
   d="M 575.9,541.9 H 404.1 c -3.9,0 -7,-3.2 -7,-7 V 412.3 c 0,-3.9 3.2,-7 7,-7 h 171.8 c 3.9,0 7,3.2 7,7 v 122.5 c 0,3.9 -3.1,7.1 -7,7.1 z" />
	<path
   id="XMLID_134_"
   class="st9"
   d="M 567.9,535.1 H 396.1 c -3.9,0 -7,-3.2 -7,-7 V 405.6 c 0,-3.9 3.2,-7 7,-7 h 171.8 c 3.9,0 7,3.2 7,7 v 122.5 c 0.1,3.9 -3.1,7 -7,7 z"
   style="fill:#99c83f;fill-opacity:1" />
	<path
   id="XMLID_137_"
   class="st7"
   d="M 567.9,535.1 H 396.1 c -3.9,0 -7,-3.2 -7,-7 V 405.6 c 0,-3.9 3.2,-7 7,-7 h 171.8 c 3.9,0 7,3.2 7,7 v 122.5 c 0.1,3.9 -3.1,7 -7,7 z"
   style="stroke:#0c1633;stroke-opacity:1" />
	<polygon
   id="XMLID_96_"
   class="st10"
   points="522.5,647.8 438.7,647.8 449.1,592.9 512.1,592.9 "
   style="fill:#0c1633;fill-opacity:1" />
	<polygon
   id="XMLID_99_"
   class="st8"
   points="514.9,608.4 512.1,592.9 449.1,592.9 446.3,608.4 "
   style="opacity:1;fill:#000000;fill-opacity:1" />
	<polygon
   id="XMLID_3_"
   class="st7"
   points="522.5,647.8 438.7,647.8 449.1,592.9 512.1,592.9 "
   style="stroke:#ffffff" />
	<rect
   id="XMLID_8_"
   x="407.54456"
   y="646.53876"
   class="st7"
   width="140.51089"
   height="9.5166645"
   style="fill:#000000;fill-opacity:1;stroke:#ffffff;stroke-width:3;stroke-opacity:1" />
	<circle
   id="XMLID_9_"
   class="st3"
   cx="480.10001"
   cy="567.70001"
   r="6.1999998"
   style="fill:#ffffff;fill-opacity:1" />
	<path
   id="XMLID_133_"
   class="st2"
   d="M 553.8,522.5 H 382 c -3.9,0 -7,-3.2 -7,-7 V 392.9 c 0,-3.9 3.2,-7 7,-7 h 171.8 c 3.9,0 7,3.2 7,7 v 122.5 c 0.1,3.9 -3.1,7.1 -7,7.1 z" />
	<path
   id="XMLID_25_"
   class="st7"
   d="M 553.8,522.5 H 382 c -3.9,0 -7,-3.2 -7,-7 V 392.9 c 0,-3.9 3.2,-7 7,-7 h 171.8 c 3.9,0 7,3.2 7,7 v 122.5 c 0.1,3.9 -3.1,7.1 -7,7.1 z"
   style="stroke:#0c1633;stroke-opacity:1" />
	<path
   id="XMLID_105_"
   class="st4"
   d="M 560.9,407 H 375 v -13.8 c 0,-4 3.3,-7.4 7.4,-7.4 H 554 c 3.8,0 6.9,3.1 6.9,6.9 z"
   style="fill:#99c83f;fill-opacity:1" />
	<path
   id="XMLID_26_"
   class="st7"
   d="M 560.9,407 H 375 v -13.8 c 0,-4 3.3,-7.4 7.4,-7.4 H 554 c 3.8,0 6.9,3.1 6.9,6.9 z"
   style="stroke:#0c1633;stroke-opacity:1" />
	<g
   id="XMLID_108_">
		<circle
   id="XMLID_106_"
   class="st3"
   cx="392.89999"
   cy="396.5"
   r="3.3"
   style="fill:#172647;fill-opacity:1" />
		<circle
   id="XMLID_109_"
   class="st3"
   cx="403.79999"
   cy="396.5"
   r="3.3"
   style="fill:#172647;fill-opacity:1" />
		<circle
   id="XMLID_120_"
   class="st3"
   cx="414.60001"
   cy="396.5"
   r="3.3"
   style="fill:#172647;fill-opacity:1" />
	</g>
	<path
   id="XMLID_122_"
   class="st11"
   d="M 543.4,443.6 H 391.1 c -1.1,0 -2,-0.9 -2,-2 v -21.3 c 0,-1.1 0.9,-2 2,-2 h 152.3 c 1.1,0 2,0.9 2,2 v 21.3 c 0,1.1 -0.9,2 -2,2 z"
   style="fill:#99c83f;fill-opacity:1" />
	<g
   id="XMLID_123_">
		<path
   id="XMLID_124_"
   class="st12"
   d="M 434.9,470.3 H 391 c -1.1,0 -2,-0.9 -2,-2 v -11.5 c 0,-1.1 0.9,-2 2,-2 h 43.9 c 1.1,0 2,0.9 2,2 v 11.5 c 0,1.1 -0.8,2 -2,2 z"
   style="opacity:1;fill:#99c83f;fill-opacity:1" />
		<line
   id="XMLID_125_"
   class="st13"
   x1="396.10001"
   y1="481.60001"
   x2="431.29999"
   y2="481.60001"
   style="opacity:1;fill:#99c83f;fill-opacity:1;stroke:#99c83f;stroke-opacity:1" />
		<line
   id="XMLID_128_"
   class="st13"
   x1="396.10001"
   y1="492.89999"
   x2="431.29999"
   y2="492.89999"
   style="opacity:1;fill:#99c83f;fill-opacity:1;stroke:#99c83f;stroke-opacity:1" />
	</g>
	<g
   id="XMLID_127_">
		<path
   id="XMLID_131_"
   class="st12"
   d="M 489.9,470.3 H 446 c -1.1,0 -2,-0.9 -2,-2 v -11.5 c 0,-1.1 0.9,-2 2,-2 h 43.9 c 1.1,0 2,0.9 2,2 v 11.5 c 0,1.1 -0.9,2 -2,2 z"
   style="opacity:1;fill:#99c83f;fill-opacity:1" />
		<line
   id="XMLID_130_"
   class="st13"
   x1="451"
   y1="481.60001"
   x2="484.79999"
   y2="481.60001"
   style="opacity:1;fill:#99c83f;fill-opacity:1;stroke:#99c83f;stroke-opacity:1" />
		<line
   id="XMLID_129_"
   class="st13"
   x1="451"
   y1="492.89999"
   x2="484.79999"
   y2="492.89999"
   style="opacity:1;fill:#99c83f;fill-opacity:1;stroke:#99c83f;stroke-opacity:1" />
	</g>
	<g
   id="XMLID_132_"
   class="st14">
		
	<path
   id="XMLID_135_"
   class="st3"
   d="m 544.8,494.3 h -43.9 c -1.1,0 -2,-0.9 -2,-2 v -35.4 c 0,-1.1 0.9,-2 2,-2 h 43.9 c 1.1,0 2,0.9 2,2 v 35.4 c 0,1.1 -0.9,2 -2,2 z"
   style="opacity:0;fill:#000000;fill-opacity:1" /></g>
	<g
   id="XMLID_126_"
   class="st15"
   style="opacity:1">
		<path
   id="XMLID_136_"
   class="st3"
   d="m 543.4,505.6 h -41.8 c -1.6,0 -2.8,-1.3 -2.8,-2.8 0,-1.5 1.3,-2.8 2.8,-2.8 h 41.8 c 1.6,0 2.8,1.3 2.8,2.8 0,1.5 -1.3,2.8 -2.8,2.8 z"
   style="fill:#99c83f;fill-opacity:1;stroke:none;stroke-opacity:1" />
	</g>
</g><g
     id="XMLID_23_">
	<g
   id="XMLID_12_">
		<path
   id="XMLID_71_"
   class="st2"
   d="m 229.2,613.4 h -80.6 c -1,0 -1.9,0.3 -2.6,1 l -19.5,17 c -1.8,1.6 -1.8,4.4 0,5.9 l 19.5,17.3 c 0.7,0.6 1.6,1.2 2.6,1.2 h 80.6 c 4.6,0 8.4,-4.2 8.4,-8.8 v -25.5 c -0.1,-4.4 -3.8,-8.1 -8.4,-8.1 z m -82.8,25.9 c -2.7,0 -5,-2.2 -5,-5 0,-2.8 2.2,-5 5,-5 2.8,0 5,2.2 5,5 0,2.8 -2.2,5 -5,5 z"
   style="fill:#cccdd0;fill-opacity:1" />
		<rect
   id="XMLID_70_"
   x="167.10001"
   y="613.40002"
   class="st16"
   width="23.5"
   height="42.5"
   style="fill:#b7da79;fill-opacity:1" />
		<rect
   id="XMLID_69_"
   x="190.60001"
   y="613.40002"
   class="st17"
   width="23.5"
   height="42.5"
   style="fill:#a0cc4c;fill-opacity:1" />
		<path
   id="XMLID_58_"
   class="st18"
   d="m 227.1,655.9 h -13 v -42.5 h 13.4 c 5.5,0 10.1,4.5 10.1,10.1 v 22 c -0.1,5.7 -4.8,10.4 -10.5,10.4 z"
   style="fill:#7eac31;fill-opacity:1" />
		<path
   id="XMLID_117_"
   class="st6"
   d="m 231.4,615.5 c -0.4,-0.1 -0.8,-0.1 -1.2,-0.1 h -80.6 c -1,0 -1.9,0.3 -2.6,1 l -19.5,17 c -1.8,1.6 -1.8,4.4 0,5.9 l 12.2,10.7 13.2,3.3 c 0.6,0.2 1.3,0.2 2,0.2 1.3,0 2.5,-0.3 3.7,-0.9 L 230.4,616 c 0.3,-0.1 0.7,-0.3 1,-0.5 z m -84,25.8 c -2.7,0 -5,-2.2 -5,-5 0,-2.8 2.2,-5 5,-5 2.8,0 5,2.2 5,5 0,2.8 -2.2,5 -5,5 z"
   style="fill:#000000;fill-opacity:1" />
		<path
   id="XMLID_29_"
   class="st7"
   d="m 229.2,613.4 h -80.6 c -1,0 -1.9,0.3 -2.6,1 l -19.5,17 c -1.8,1.6 -1.8,4.4 0,5.9 l 19.5,17.3 c 0.7,0.6 1.6,1.2 2.6,1.2 h 80.6 c 4.6,0 8.4,-4.2 8.4,-8.8 v -25.5 c -0.1,-4.4 -3.8,-8.1 -8.4,-8.1 z m -82.8,25.9 c -2.7,0 -5,-2.2 -5,-5 0,-2.8 2.2,-5 5,-5 2.8,0 5,2.2 5,5 0,2.8 -2.2,5 -5,5 z"
   style="stroke:#ffffff" />
		<rect
   id="XMLID_17_"
   x="167.10001"
   y="613.40002"
   class="st7"
   width="23.5"
   height="42.5"
   style="stroke:#ffffff" />
		<rect
   id="XMLID_21_"
   x="190.60001"
   y="613.40002"
   class="st7"
   width="23.5"
   height="42.5"
   style="stroke:#ffffff" />
		<path
   id="XMLID_22_"
   class="st7"
   d="m 227.1,655.9 h -13 v -42.5 h 13.4 c 5.5,0 10.1,4.5 10.1,10.1 v 22 c -0.1,5.7 -4.8,10.4 -10.5,10.4 z"
   style="stroke:#ffffff" />
	</g>
	<g
   id="XMLID_20_">
		<path
   id="XMLID_74_"
   class="st2"
   d="m 208.4,573 -71.8,36.6 c -0.9,0.4 -1.5,1.2 -1.9,2.1 l -9.6,24 c -0.9,2.2 0.4,4.7 2.7,5.3 l 25.1,6.4 c 0.9,0.2 1.9,0.1 2.8,-0.3 l 71.8,-36.6 c 4.1,-2.1 5.7,-7.1 3.6,-11.1 l -11.6,-22.7 c -2.1,-4.2 -7.1,-5.8 -11.1,-3.7 z"
   style="fill:#cccdd0;fill-opacity:1" />
		
			<rect
   id="XMLID_77_"
   x="182.2"
   y="582.90002"
   transform="matrix(0.8908,-0.4545,0.4545,0.8908,-253.2897,154.0934)"
   class="st19"
   width="23.5"
   height="42"
   style="fill:#142554;fill-opacity:1" />
		<path
   id="XMLID_33_"
   class="st7"
   d="m 208.4,573 -71.8,36.6 c -0.9,0.4 -1.5,1.2 -1.9,2.1 l -9.6,24 c -0.9,2.2 0.4,4.7 2.7,5.3 l 25.1,6.4 c 0.9,0.2 1.9,0.1 2.8,-0.3 l 71.8,-36.6 c 4.1,-2.1 5.7,-7.1 3.6,-11.1 l -11.6,-22.7 c -2.1,-4.2 -7.1,-5.8 -11.1,-3.7 z"
   style="stroke:#ffffff" />
		<circle
   id="XMLID_34_"
   class="st3"
   cx="144.2"
   cy="629.29999"
   r="5.8000002"
   style="fill:#0c1633;fill-opacity:1" />
		
			<rect
   id="XMLID_79_"
   x="161.2"
   y="593.59998"
   transform="matrix(0.8908,-0.4545,0.4545,0.8908,-260.4252,145.7524)"
   class="st20"
   width="23.5"
   height="42"
   style="fill:#3961c9;fill-opacity:1" />
		
			<rect
   id="XMLID_32_"
   x="161.2"
   y="593.59998"
   transform="matrix(0.8908,-0.4545,0.4545,0.8908,-260.4252,145.7524)"
   class="st7"
   width="23.5"
   height="42"
   style="stroke:#ffffff" />
		
			<rect
   id="XMLID_31_"
   x="182.2"
   y="582.90002"
   transform="matrix(0.8908,-0.4545,0.4545,0.8908,-253.2897,154.0934)"
   class="st7"
   width="23.5"
   height="42"
   style="stroke:#ffffff" />
		<path
   id="XMLID_30_"
   class="st11"
   d="m 225.9,611.2 -12,6.1 -19.1,-37.4 12,-6.1 c 4.9,-2.5 10.9,-0.6 13.5,4.4 l 10,19.6 c 2.5,4.9 0.5,10.9 -4.4,13.4 z"
   style="fill:#000000;fill-opacity:1" />
		<path
   id="XMLID_78_"
   class="st7"
   d="m 225.9,611.2 -12,6.1 -19.1,-37.4 12,-6.1 c 4.9,-2.5 10.9,-0.6 13.5,4.4 l 10,19.6 c 2.5,4.9 0.5,10.9 -4.4,13.4 z"
   style="stroke:#ffffff" />
	</g>
</g><g
     id="XMLID_90_">
	<path
   id="XMLID_102_"
   class="st2"
   d="m 327,656.2 h -67.3 c -5.5,0 -10,-4.5 -10,-10 V 511.3 c 0,-5.5 4.5,-10 10,-10 H 327 c 5.5,0 10,4.5 10,10 v 134.9 c 0,5.6 -4.5,10 -10,10 z"
   style="fill:#cccdd0;fill-opacity:1" />
	<path
   id="XMLID_83_"
   class="st11"
   d="m 338.4,547.8 h -88.7 v -36.7 c 0,-5.4 4.4,-9.8 9.8,-9.8 H 328 c 5.7,0 10.3,4.7 10.3,10.3 v 36.2 z"
   style="fill:#99c83f;fill-opacity:1" />
	<path
   id="XMLID_10_"
   class="st7"
   d="m 327,656.2 h -67.3 c -5.5,0 -10,-4.5 -10,-10 V 511.3 c 0,-5.5 4.5,-10 10,-10 H 327 c 5.5,0 10,4.5 10,10 v 134.9 c 0,5.6 -4.5,10 -10,10 z"
   style="stroke:#ffffff" />
	<path
   id="XMLID_82_"
   class="st4"
   d="M 327.1,656.2 H 260 c -5.7,0 -10.4,-4.7 -10.4,-10.4 V 626.6 H 337 v 19.7 c 0,5.5 -4.5,9.9 -9.9,9.9 z"
   style="fill:#0c1633;fill-opacity:1" />
	<path
   id="XMLID_81_"
   class="st7"
   d="M 327.3,656.2 H 260 c -5.7,0 -10.4,-4.7 -10.4,-10.4 V 626.6 H 337 v 19.9 c 0,5.4 -4.4,9.7 -9.7,9.7 z"
   style="stroke:#ffffff" />
	<circle
   id="XMLID_84_"
   class="st3"
   cx="294"
   cy="640.79999"
   r="5"
   style="fill:#ffffff;fill-opacity:1" />
	<line
   id="XMLID_86_"
   class="st21"
   x1="269.39999"
   y1="563.29999"
   x2="318.70001"
   y2="563.29999" />
	<line
   id="XMLID_87_"
   class="st21"
   x1="279.20001"
   y1="578.79999"
   x2="310.20001"
   y2="578.79999" />
	<line
   id="XMLID_88_"
   class="st21"
   x1="269.39999"
   y1="592.90002"
   x2="318.70001"
   y2="592.90002" />
	<circle
   id="XMLID_85_"
   class="st22"
   cx="294"
   cy="528.09998"
   r="11.2"
   style="opacity:1;fill:#0c1633;fill-opacity:1" />
	<path
   id="XMLID_89_"
   class="st17"
   d="m 310.2,608.4 c 0,3.1 -2.5,5.6 -5.6,5.6 h -21.1 c -3.1,0 -5.6,-2.5 -5.6,-5.6 v 0 c 0,-3.1 2.5,-5.6 5.6,-5.6 h 21.1 c 3.1,-0.1 5.6,2.4 5.6,5.6 z"
   style="fill:#0c1633;fill-opacity:1" />
</g><g
     id="XMLID_111_">
	<path
   id="XMLID_100_"
   class="st4"
   d="M 848.2,637.9 H 605.9 V 492.3 c 0,-4.3 3.5,-7.8 7.8,-7.8 h 226.8 c 4.2,0 7.6,3.4 7.6,7.6 v 145.8 z"
   style="fill:#0c1633;fill-opacity:1" />
	<path
   id="XMLID_11_"
   class="st7"
   d="M 848.8,638.2 H 606.6 v -146 c 0,-4.4 3.6,-8 8,-8 h 226.2 c 4.4,0 8,3.6 8,8 z"
   style="stroke:#ffffff" />
	
		<rect
   id="XMLID_101_"
   x="663.70001"
   y="453.39999"
   transform="rotate(90,727.7506,561.1768)"
   class="st23"
   width="128.2"
   height="215.5"
   style="opacity:1;fill:#cccdd0;fill-opacity:1" />
	<path
   id="XMLID_183_"
   class="st8"
   d="m 672.7,600.9 h -18.6 c -1.1,0 -2,-0.9 -2,-2 v -63.7 c 0,-1.1 0.9,-2 2,-2 h 18.6 c 1.1,0 2,0.9 2,2 V 599 c 0,1 -0.9,1.9 -2,1.9 z" />
	<path
   id="XMLID_178_"
   class="st8"
   d="M 807,613.8 H 699.6 c -2.2,0 -4,-1.8 -4,-4 v -82.1 c 0,-2.2 1.8,-4 4,-4 H 807 c 2.2,0 4,1.8 4,4 v 82.1 c 0,2.2 -1.7,4 -4,4 z" />
	
		
	<path
   id="XMLID_110_"
   class="st2"
   d="M 875.2,638.2 H 580.1 v 9.4 c 0,4.4 3.6,8 8,8 h 279.1 c 4.4,0 8,-3.6 8,-8 z"
   style="fill:#0c1633;fill-opacity:1" />
	<path
   id="XMLID_206_"
   class="st24"
   d="M 591.4,656.2 H 864 c 5.5,0 10,-4.2 11,-9.9 H 580.3 c 1,5.7 5.6,9.9 11.1,9.9 z"
   style="fill:#000000;fill-opacity:1" />
	<path
   id="XMLID_15_"
   class="st7"
   d="M 875.2,638.2 H 580.1 v 9.4 c 0,4.4 3.6,8 8,8 h 279.1 c 4.4,0 8,-3.6 8,-8 z"
   style="stroke:#ffffff" />
	<rect
   id="XMLID_201_"
   x="646.79999"
   y="528.09998"
   class="st16"
   width="22.5"
   height="22.5"
   style="fill:#3961c9;fill-opacity:1" />
	<rect
   id="XMLID_138_"
   x="647.20001"
   y="528.29999"
   class="st7"
   width="22.5"
   height="22.5" />
	<rect
   id="XMLID_180_"
   x="647.20001"
   y="528.29999"
   class="st7"
   width="22.5"
   height="22.5"
   style="stroke:#ffffff" />
	<rect
   id="XMLID_156_"
   x="646.79999"
   y="550.59998"
   class="st19"
   width="22.5"
   height="22.5"
   style="fill:#142554;fill-opacity:1" />
	<rect
   id="XMLID_140_"
   x="647.20001"
   y="550.90002"
   class="st7"
   width="22.5"
   height="22.5"
   style="stroke:#ffffff" />
	<rect
   id="XMLID_202_"
   x="646.79999"
   y="573.09998"
   class="st11"
   width="22.5"
   height="22.5"
   style="fill:#000000;fill-opacity:1" />
	<rect
   id="XMLID_143_"
   x="647.20001"
   y="573.40002"
   class="st7"
   width="22.5"
   height="22.5"
   style="stroke:#ffffff" />
	<path
   id="XMLID_115_"
   class="st2"
   d="M 800.5,606.9 H 693 c -2.2,0 -4,-1.8 -4,-4 v -82.1 c 0,-2.2 1.8,-4 4,-4 h 107.5 c 2.2,0 4,1.8 4,4 v 82.1 c 0,2.3 -1.8,4 -4,4 z"
   style="fill:#99c83f;fill-opacity:1" />
	<path
   id="XMLID_139_"
   class="st7"
   d="M 800.5,606.9 H 693 c -2.2,0 -4,-1.8 -4,-4 v -82.1 c 0,-2.2 1.8,-4 4,-4 h 107.5 c 2.2,0 4,1.8 4,4 v 82.1 c 0,2.3 -1.8,4 -4,4 z"
   style="stroke:#0c1633;stroke-opacity:1" />
	<g
   id="XMLID_147_"
   class="st25">
		<g
   id="XMLID_205_">
			<polyline
   id="XMLID_419_"
   class="st26"
   points="770.7,583.2 770.7,584.7 769.2,584.7    " />
			<line
   id="XMLID_418_"
   class="st27"
   x1="767.29999"
   y1="584.70001"
   x2="725.40002"
   y2="584.70001" />
			<polyline
   id="XMLID_417_"
   class="st26"
   points="724.4,584.7 722.9,584.7 722.9,583.2    " />
			<line
   id="XMLID_416_"
   class="st28"
   x1="722.90002"
   y1="581.09998"
   x2="722.90002"
   y2="542.09998" />
			<polyline
   id="XMLID_415_"
   class="st26"
   points="722.9,541.1 722.9,539.6 724.4,539.6    " />
			<line
   id="XMLID_214_"
   class="st27"
   x1="726.29999"
   y1="539.59998"
   x2="768.20001"
   y2="539.59998" />
			<polyline
   id="XMLID_213_"
   class="st26"
   points="769.2,539.6 770.7,539.6 770.7,541.1    " />
			<line
   id="XMLID_211_"
   class="st28"
   x1="770.70001"
   y1="543.09998"
   x2="770.70001"
   y2="582.20001" />
		</g>
	</g>
	<g
   id="XMLID_155_">
		<rect
   id="XMLID_154_"
   x="719.59998"
   y="536.09998"
   class="st2"
   width="7.0999999"
   height="7.0999999" />
		<rect
   id="XMLID_153_"
   x="719.29999"
   y="535.79999"
   class="st29"
   width="7"
   height="7"
   style="stroke:#0c1633;stroke-opacity:1" />
	</g>
	<g
   id="XMLID_157_">
		<rect
   id="XMLID_159_"
   x="719.59998"
   y="581.09998"
   class="st2"
   width="7.0999999"
   height="7.0999999" />
		<rect
   id="XMLID_158_"
   x="719.29999"
   y="580.90002"
   class="st29"
   width="7"
   height="7"
   style="stroke:#0c1633;stroke-opacity:1" />
	</g>
	<g
   id="XMLID_162_">
		<rect
   id="XMLID_166_"
   x="767.20001"
   y="536.09998"
   class="st2"
   width="7.0999999"
   height="7.0999999" />
		<rect
   id="XMLID_164_"
   x="767.20001"
   y="535.79999"
   class="st29"
   width="7"
   height="7"
   style="stroke:#0c1633;stroke-opacity:1" />
	</g>
	<g
   id="XMLID_196_">
		<rect
   id="XMLID_198_"
   x="767.20001"
   y="581.09998"
   class="st2"
   width="7.0999999"
   height="7.0999999" />
		<rect
   id="XMLID_197_"
   x="767.20001"
   y="580.90002"
   class="st29"
   width="7"
   height="7"
   style="stroke:#0c1633;stroke-opacity:1" />
	</g>
	<g
   id="XMLID_229_">
		<g
   id="XMLID_225_">
			<polygon
   id="XMLID_230_"
   class="st2"
   points="672.5,581.3 677.3,576.5 673.8,569.5 658.5,562.5 665.6,577.7 " />
			<polygon
   id="XMLID_227_"
   class="st29"
   points="672.5,581.3 677.3,576.5 673.8,569.5 658.5,562.5 665.6,577.7 "
   style="stroke:#0c1633;stroke-opacity:1" />
			<circle
   id="XMLID_224_"
   class="st3"
   cx="667.5"
   cy="571.09998"
   r="1.9"
   style="fill:#0c1633;fill-opacity:1" />
			<line
   id="XMLID_226_"
   class="st30"
   x1="658.5"
   y1="562.5"
   x2="666.40002"
   y2="570.40002"
   style="stroke:#0c1633;stroke-opacity:1" />
		</g>
		
			<rect
   id="XMLID_231_"
   x="673.29999"
   y="578.09998"
   transform="matrix(0.7071,-0.7071,0.7071,0.7071,-212.3433,648.545)"
   class="st2"
   width="6.8000002"
   height="4.9000001" />
		
			<rect
   id="XMLID_228_"
   x="673.29999"
   y="578.09998"
   transform="matrix(0.7071,-0.7071,0.7071,0.7071,-212.3433,648.545)"
   class="st29"
   width="6.8000002"
   height="4.9000001"
   style="stroke:#0c1633;stroke-opacity:1" />
	</g>
</g><rect
     style="opacity:1;fill:#99c83f;fill-opacity:1;stroke:none;stroke-width:1.04734;stroke-opacity:1"
     id="rect64"
     width="46.500015"
     height="39.999996"
     x="498.89999"
     y="454.89999"
     ry="2.0233393" /><g
     id="g9"
     transform="matrix(0.46666738,0,0,0.46666738,290.40045,149.05428)"><rect
       style="opacity:1;fill:#99c83f;fill-opacity:1;stroke:none;stroke-width:6.19276;stroke-opacity:1"
       id="rect3"
       width="176.60098"
       height="88.306732"
       x="-245.48415"
       y="276.05984"
       ry="44.153366" /><path
       id="rect4"
       style="opacity:1;fill:#99c83f;fill-opacity:1;stroke:none;stroke-width:6.19276;stroke-opacity:1"
       d="m -201.33008,367.64614 c -24.46096,0 -44.1543,19.69138 -44.1543,44.15234 0,24.46097 19.69334,44.1543 44.1543,44.1543 h 44.14649 v -88.30664 z" /><path
       id="rect5"
       style="opacity:1;fill:#99c83f;fill-opacity:1;stroke:none;stroke-width:6.19276;stroke-opacity:1"
       d="m -201.33008,459.23173 c -24.46096,0 -44.1543,19.69138 -44.1543,44.15234 0,24.46097 19.69334,44.1543 44.1543,44.1543 43.32406,-3.52555 44.13499,-41.91763 44.14649,-44.06055 v -44.24609 z" /><rect
       style="opacity:1;fill:#99c83f;fill-opacity:1;stroke:none;stroke-width:3;stroke-opacity:1"
       id="rect6"
       width="88.30043"
       height="88.306122"
       x="-157.18359"
       y="367.64615"
       ry="43.842731" /></g><path
     style="fill:#99c83f;fill-opacity:1;stroke-width:0.297323"
     d="m 724.83769,387.23824 c -6.05014,-1.04353 -11.38788,-5.59718 -13.8881,-11.84795 l -0.82939,-2.07354 V 341.20587 309.095 l 0.82939,-2.07355 c 2.14393,-5.36004 5.71247,-8.93029 11.06353,-11.06885 l 2.08126,-0.83178 h 32.11088 32.11088 l 2.00316,0.80289 c 5.54831,2.22384 9.46028,6.20007 11.27849,11.46374 l 0.69253,2.00487 v 31.81355 31.81355 l -0.55396,1.63528 c -1.88259,5.55737 -6.04595,9.82382 -11.68516,11.97451 l -1.73506,0.66172 -31.36757,0.0378 c -17.25216,0.0208 -31.70206,-0.0199 -32.11088,-0.0904 z m 55.74805,-25.80087 c 2.36724,-0.42958 6.09297,-1.42863 6.67942,-1.79108 0.20723,-0.12808 0.30767,-6.92969 0.30767,-20.83655 v -20.6464 h -4.01386 -4.01386 v 6.36426 6.36424 l -1.7096,-0.14783 c -7.92018,-0.68482 -14.93725,3.82979 -17.41276,11.20293 -0.45678,1.10501 -1.61655,6.16995 0.0843,10.55721 2.88258,7.43532 10.25583,10.71576 20.07866,8.93322 z m -6.48987,-6.83193 c -1.96761,-0.52889 -3.72974,-1.84049 -4.80137,-3.57379 -1.66287,-2.50578 -1.31026,-6.31306 -0.0914,-8.97806 1.55806,-2.95499 4.67499,-4.65997 8.23111,-4.50249 l 1.9622,0.0869 0.0789,8.40497 0.0789,8.40496 -0.76731,0.29173 c -1.02867,0.3911 -2.94031,0.33641 -4.69121,-0.13422 z m -37.50414,-0.7584 c 4.74553,-8.69185 3.98803,-8.30796 6.60341,-3.34657 1.18436,2.24672 2.94433,5.55668 3.91108,7.35548 l 1.7577,3.27056 5.06879,0.0813 5.06879,0.0813 -2.70376,-4.39248 c -3.34418,-5.4329 -6.0846,-9.85577 -8.16443,-13.17688 -1.947,-3.10903 -2.12985,-2.08705 1.42199,-7.94816 5.40796,-8.92403 8.28523,-13.74997 8.28523,-13.89651 0,-0.0791 -1.92768,-0.14385 -4.28375,-0.14385 h -4.28375 l -2.06799,3.79087 c -1.1374,2.08497 -2.77734,5.12881 -3.64431,6.76409 -0.86698,1.63528 -1.73997,3.21575 -1.94,3.51216 l -0.36368,0.53894 -2.39453,-4.40414 c -1.31699,-2.42227 -2.97096,-5.47586 -3.6755,-6.78576 -0.70454,-1.30989 -1.42207,-2.61793 -1.59451,-2.90674 l -0.31354,-0.52511 -4.63763,0.0822 -4.63764,0.0822 5.73638,9.78732 5.73638,9.78732 -2.3021,3.74087 c -1.26615,2.05748 -3.87367,6.28299 -5.79449,9.39001 -1.92081,3.10703 -3.61962,5.88672 -3.77513,6.17708 l -0.28274,0.52793 4.64765,-0.082 4.64767,-0.082 z"
     id="path9"
     sodipodi:nodetypes="cscccsscccsscccsscccssscccccssssssssscccssssscccssssscssscssscccccssscccss" /></g></svg>
